<?xml version="1.0" encoding="UTF-8" standalone="no"?>
<!DOCTYPE svg PUBLIC "-//W3C//DTD SVG 1.1//EN"
 "http://www.w3.org/Graphics/SVG/1.1/DTD/svg11.dtd">
<!-- Generated by graphviz version 12.2.1 (0)
 -->
<!-- Title: egraph Pages: 1 -->
<svg width="352pt" height="321pt"
 viewBox="0.00 0.00 351.60 321.00" xmlns="http://www.w3.org/2000/svg" xmlns:xlink="http://www.w3.org/1999/xlink">
<g id="graph0" class="graph" transform="scale(1 1) rotate(0) translate(4 317)">
<title>egraph</title>
<polygon fill="white" stroke="none" points="-4,4 -4,-317 347.6,-317 347.6,4 -4,4"/>
<g id="clust2" class="cluster">
<title>cluster_0</title>
<path fill="lightgrey" stroke="black" stroke-dasharray="5,2" d="M210,-8C210,-8 256,-8 256,-8 262,-8 268,-14 268,-20 268,-20 268,-50 268,-50 268,-56 262,-62 256,-62 256,-62 210,-62 210,-62 204,-62 198,-56 198,-50 198,-50 198,-20 198,-20 198,-14 204,-8 210,-8"/>
</g>
<g id="clust4" class="cluster">
<title>cluster_1</title>
<path fill="lightgrey" stroke="black" stroke-dasharray="5,2" d="M106,-89C106,-89 152,-89 152,-89 158,-89 164,-95 164,-101 164,-101 164,-131 164,-131 164,-137 158,-143 152,-143 152,-143 106,-143 106,-143 100,-143 94,-137 94,-131 94,-131 94,-101 94,-101 94,-95 100,-89 106,-89"/>
</g>
<g id="clust6" class="cluster">
<title>cluster_2</title>
<path fill="lightgrey" stroke="black" stroke-dasharray="5,2" d="M184,-89C184,-89 230,-89 230,-89 236,-89 242,-95 242,-101 242,-101 242,-131 242,-131 242,-137 236,-143 230,-143 230,-143 184,-143 184,-143 178,-143 172,-137 172,-131 172,-131 172,-101 172,-101 172,-95 178,-89 184,-89"/>
</g>
<g id="clust8" class="cluster">
<title>cluster_4</title>
<path fill="lightgrey" stroke="black" stroke-dasharray="5,2" d="M272,-170C272,-170 318,-170 318,-170 324,-170 330,-176 330,-182 330,-182 330,-212 330,-212 330,-218 324,-224 318,-224 318,-224 272,-224 272,-224 266,-224 260,-218 260,-212 260,-212 260,-182 260,-182 260,-176 266,-170 272,-170"/>
</g>
<g id="clust10" class="cluster">
<title>cluster_7</title>
<path fill="lightgrey" stroke="black" stroke-dasharray="5,2" d="M20,-170C20,-170 240,-170 240,-170 246,-170 252,-176 252,-182 252,-182 252,-293 252,-293 252,-299 246,-305 240,-305 240,-305 20,-305 20,-305 14,-305 8,-299 8,-293 8,-293 8,-182 8,-182 8,-176 14,-170 20,-170"/>
</g>
<!-- 1.1&#45;&gt;0.1 -->
<g id="edge1" class="edge">
<title>1.1:s&#45;&gt;0.1</title>
<path fill="none" stroke="black" d="M129,-100C129,-69.05 162.82,-52.59 191.89,-44.15"/>
<polygon fill="black" stroke="black" points="192.19,-45.89 196.54,-42.87 191.26,-42.51 192.19,-45.89"/>
</g>
<!-- 7.1&#45;&gt;1.1 -->
<g id="edge2" class="edge">
<title>7.1:s&#45;&gt;1.1</title>
<path fill="none" stroke="black" d="M137.5,-181C137.5,-170.59 136.38,-159.31 134.95,-149.15"/>
<polygon fill="black" stroke="black" points="136.73,-149.18 134.26,-144.5 133.27,-149.7 136.73,-149.18"/>
</g>
<!-- 7.1&#45;&gt;2.1 -->
<g id="edge3" class="edge">
<title>7.1:s&#45;&gt;2.1</title>
<path fill="none" stroke="black" d="M152.5,-181C152.5,-168.03 159.07,-156.35 167.65,-146.63"/>
<polygon fill="black" stroke="black" points="168.81,-147.95 170.96,-143.11 166.26,-145.55 168.81,-147.95"/>
</g>
<!-- 7.2&#45;&gt;2.1 -->
<g id="edge4" class="edge">
<title>7.2:s&#45;&gt;2.1</title>
<path fill="none" stroke="black" d="M43,-262C43,-201.38 130.77,-266.5 174,-224 193.9,-204.43 201.86,-173.16 205.01,-149.46"/>
<polygon fill="black" stroke="black" points="206.75,-149.67 205.6,-144.5 203.27,-149.26 206.75,-149.67"/>
</g>
<!-- 7.3&#45;&gt;4.1 -->
<g id="edge5" class="edge">
<title>7.3:s&#45;&gt;4.1</title>
<path fill="none" stroke="black" d="M159,-262C159,-216.94 212.81,-244.38 253,-224 253.43,-223.78 253.87,-223.56 254.3,-223.33"/>
<polygon fill="black" stroke="black" points="255.09,-224.89 258.67,-220.99 253.44,-221.81 255.09,-224.89"/>
</g>
<!-- 7.4&#45;&gt;0.1 -->
<g id="edge6" class="edge">
<title>7.4:s&#45;&gt;0.1</title>
<path fill="none" stroke="black" d="M209.5,-262C209.5,-205.42 297.49,-269.59 331,-224 368.7,-172.71 310.73,-104.91 269.15,-66.33"/>
<polygon fill="black" stroke="black" points="270.41,-65.1 265.54,-63.02 268.05,-67.69 270.41,-65.1"/>
</g>
<!-- 7.4&#45;&gt;7.1 -->
<g id="edge7" class="edge">
<title>7.4:s&#45;&gt;7.1</title>
<path fill="none" stroke="black" d="M224.5,-262C224.5,-236.79 199.94,-219.83 178.12,-209.74"/>
<polygon fill="black" stroke="black" points="179.03,-208.23 173.74,-207.81 177.61,-211.43 179.03,-208.23"/>
</g>
<!-- 7.5&#45;&gt;4.1 -->
<g id="edge9" class="edge">
<title>7.5:s&#45;&gt;4.1</title>
<path fill="none" stroke="black" d="M108.5,-262C108.5,-195.59 191.99,-250.21 253,-224 253.44,-223.81 253.87,-223.62 254.31,-223.43"/>
<polygon fill="black" stroke="black" points="254.88,-225.09 258.64,-221.35 253.37,-221.94 254.88,-225.09"/>
</g>
<!-- 7.5&#45;&gt;7.1 -->
<g id="edge8" class="edge">
<title>7.5:s&#45;&gt;7.1</title>
<path fill="none" stroke="black" d="M93.5,-262C93.5,-245.88 103.53,-231.53 114.74,-220.51"/>
<polygon fill="black" stroke="black" points="115.68,-222.03 118.14,-217.34 113.29,-219.47 115.68,-222.03"/>
</g>
<!-- 0.1 -->
<g id="node1" class="node">
<title>0.1</title>
<path fill="white" stroke="black" d="M248,-54C248,-54 218,-54 218,-54 212,-54 206,-48 206,-42 206,-42 206,-28 206,-28 206,-22 212,-16 218,-16 218,-16 248,-16 248,-16 254,-16 260,-22 260,-28 260,-28 260,-42 260,-42 260,-48 254,-54 248,-54"/>
<text text-anchor="start" x="228.88" y="-30.32" font-family="Helvetica,sans-Serif" font-size="14.00">a</text>
</g>
<!-- 1.1 -->
<g id="node2" class="node">
<title>1.1</title>
<path fill="white" stroke="black" d="M144,-135C144,-135 114,-135 114,-135 108,-135 102,-129 102,-123 102,-123 102,-109 102,-109 102,-103 108,-97 114,-97 114,-97 144,-97 144,-97 150,-97 156,-103 156,-109 156,-109 156,-123 156,-123 156,-129 150,-135 144,-135"/>
<text text-anchor="start" x="124.5" y="-111.33" font-family="Helvetica,sans-Serif" font-size="14.00">g</text>
</g>
<!-- 2.1 -->
<g id="node3" class="node">
<title>2.1</title>
<path fill="white" stroke="black" d="M222,-135C222,-135 192,-135 192,-135 186,-135 180,-129 180,-123 180,-123 180,-109 180,-109 180,-103 186,-97 192,-97 192,-97 222,-97 222,-97 228,-97 234,-103 234,-109 234,-109 234,-123 234,-123 234,-129 228,-135 222,-135"/>
<text text-anchor="start" x="203.25" y="-111.33" font-family="Helvetica,sans-Serif" font-size="14.00">c</text>
</g>
<!-- 4.1 -->
<g id="node4" class="node">
<title>4.1</title>
<path fill="white" stroke="black" d="M310,-216C310,-216 280,-216 280,-216 274,-216 268,-210 268,-204 268,-204 268,-190 268,-190 268,-184 274,-178 280,-178 280,-178 310,-178 310,-178 316,-178 322,-184 322,-190 322,-190 322,-204 322,-204 322,-210 316,-216 310,-216"/>
<text text-anchor="start" x="290.5" y="-192.32" font-family="Helvetica,sans-Serif" font-size="14.00">b</text>
</g>
<!-- 7.1 -->
<g id="node5" class="node">
<title>7.1</title>
<path fill="white" stroke="black" d="M160,-216C160,-216 130,-216 130,-216 124,-216 118,-210 118,-204 118,-204 118,-190 118,-190 118,-184 124,-178 130,-178 130,-178 160,-178 160,-178 166,-178 172,-184 172,-190 172,-190 172,-204 172,-204 172,-210 166,-216 160,-216"/>
<text text-anchor="start" x="142.38" y="-192.32" font-family="Helvetica,sans-Serif" font-size="14.00">f</text>
</g>
<!-- 7.2 -->
<g id="node6" class="node">
<title>7.2</title>
<path fill="white" stroke="black" d="M58,-297C58,-297 28,-297 28,-297 22,-297 16,-291 16,-285 16,-285 16,-271 16,-271 16,-265 22,-259 28,-259 28,-259 58,-259 58,-259 64,-259 70,-265 70,-271 70,-271 70,-285 70,-285 70,-291 64,-297 58,-297"/>
<text text-anchor="start" x="38.5" y="-273.32" font-family="Helvetica,sans-Serif" font-size="14.00">g</text>
</g>
<!-- 7.3 -->
<g id="node7" class="node">
<title>7.3</title>
<path fill="white" stroke="black" d="M174,-297C174,-297 144,-297 144,-297 138,-297 132,-291 132,-285 132,-285 132,-271 132,-271 132,-265 138,-259 144,-259 144,-259 174,-259 174,-259 180,-259 186,-265 186,-271 186,-271 186,-285 186,-285 186,-291 180,-297 174,-297"/>
<text text-anchor="start" x="154.5" y="-273.32" font-family="Helvetica,sans-Serif" font-size="14.00">g</text>
</g>
<!-- 7.4 -->
<g id="node8" class="node">
<title>7.4</title>
<path fill="white" stroke="black" d="M232,-297C232,-297 202,-297 202,-297 196,-297 190,-291 190,-285 190,-285 190,-271 190,-271 190,-265 196,-259 202,-259 202,-259 232,-259 232,-259 238,-259 244,-265 244,-271 244,-271 244,-285 244,-285 244,-291 238,-297 232,-297"/>
<text text-anchor="start" x="212.5" y="-273.32" font-family="Helvetica,sans-Serif" font-size="14.00">h</text>
</g>
<!-- 7.5 -->
<g id="node9" class="node">
<title>7.5</title>
<path fill="white" stroke="black" d="M116,-297C116,-297 86,-297 86,-297 80,-297 74,-291 74,-285 74,-285 74,-271 74,-271 74,-265 80,-259 86,-259 86,-259 116,-259 116,-259 122,-259 128,-265 128,-271 128,-271 128,-285 128,-285 128,-291 122,-297 116,-297"/>
<text text-anchor="start" x="96.5" y="-273.32" font-family="Helvetica,sans-Serif" font-size="14.00">h</text>
</g>
</g>
</svg>
