<?xml version="1.0" encoding="UTF-8" standalone="no"?>
<!DOCTYPE svg PUBLIC "-//W3C//DTD SVG 1.1//EN"
 "http://www.w3.org/Graphics/SVG/1.1/DTD/svg11.dtd">
<!-- Generated by graphviz version 12.2.1 (0)
 -->
<!-- Title: egraph Pages: 1 -->
<svg width="172pt" height="159pt"
 viewBox="0.00 0.00 172.00 159.00" xmlns="http://www.w3.org/2000/svg" xmlns:xlink="http://www.w3.org/1999/xlink">
<g id="graph0" class="graph" transform="scale(1 1) rotate(0) translate(4 155)">
<title>egraph</title>
<polygon fill="white" stroke="none" points="-4,4 -4,-155 168,-155 168,4 -4,4"/>
<g id="clust2" class="cluster">
<title>cluster_0</title>
<path fill="lightgrey" stroke="black" stroke-dasharray="5,2" d="M20,-8C20,-8 66,-8 66,-8 72,-8 78,-14 78,-20 78,-20 78,-50 78,-50 78,-56 72,-62 66,-62 66,-62 20,-62 20,-62 14,-62 8,-56 8,-50 8,-50 8,-20 8,-20 8,-14 14,-8 20,-8"/>
</g>
<g id="clust4" class="cluster">
<title>cluster_1</title>
<path fill="lightgrey" stroke="black" stroke-dasharray="5,2" d="M98,-8C98,-8 144,-8 144,-8 150,-8 156,-14 156,-20 156,-20 156,-50 156,-50 156,-56 150,-62 144,-62 144,-62 98,-62 98,-62 92,-62 86,-56 86,-50 86,-50 86,-20 86,-20 86,-14 92,-8 98,-8"/>
</g>
<g id="clust6" class="cluster">
<title>cluster_2</title>
<path fill="lightgrey" stroke="black" stroke-dasharray="5,2" d="M59,-89C59,-89 105,-89 105,-89 111,-89 117,-95 117,-101 117,-101 117,-131 117,-131 117,-137 111,-143 105,-143 105,-143 59,-143 59,-143 53,-143 47,-137 47,-131 47,-131 47,-101 47,-101 47,-95 53,-89 59,-89"/>
</g>
<!-- 2.1&#45;&gt;0.1 -->
<g id="edge1" class="edge">
<title>2.1:s&#45;&gt;0.1</title>
<path fill="none" stroke="black" d="M74.5,-100C74.5,-88.81 70.58,-77.54 65.5,-67.65"/>
<polygon fill="black" stroke="black" points="67.06,-66.87 63.12,-63.32 63.99,-68.55 67.06,-66.87"/>
</g>
<!-- 2.1&#45;&gt;1.1 -->
<g id="edge2" class="edge">
<title>2.1:s&#45;&gt;1.1</title>
<path fill="none" stroke="black" d="M89.5,-100C89.5,-88.81 93.42,-77.54 98.5,-67.65"/>
<polygon fill="black" stroke="black" points="100.01,-68.55 100.88,-63.32 96.94,-66.87 100.01,-68.55"/>
</g>
<!-- 0.1 -->
<g id="node1" class="node">
<title>0.1</title>
<path fill="white" stroke="black" d="M58,-54C58,-54 28,-54 28,-54 22,-54 16,-48 16,-42 16,-42 16,-28 16,-28 16,-22 22,-16 28,-16 28,-16 58,-16 58,-16 64,-16 70,-22 70,-28 70,-28 70,-42 70,-42 70,-48 64,-54 58,-54"/>
<text text-anchor="start" x="38.88" y="-30.32" font-family="Helvetica,sans-Serif" font-size="14.00">a</text>
</g>
<!-- 1.1 -->
<g id="node2" class="node">
<title>1.1</title>
<path fill="white" stroke="black" d="M136,-54C136,-54 106,-54 106,-54 100,-54 94,-48 94,-42 94,-42 94,-28 94,-28 94,-22 100,-16 106,-16 106,-16 136,-16 136,-16 142,-16 148,-22 148,-28 148,-28 148,-42 148,-42 148,-48 142,-54 136,-54"/>
<text text-anchor="start" x="116.5" y="-30.32" font-family="Helvetica,sans-Serif" font-size="14.00">b</text>
</g>
<!-- 2.1 -->
<g id="node3" class="node">
<title>2.1</title>
<path fill="white" stroke="black" d="M97,-135C97,-135 67,-135 67,-135 61,-135 55,-129 55,-123 55,-123 55,-109 55,-109 55,-103 61,-97 67,-97 67,-97 97,-97 97,-97 103,-97 109,-103 109,-109 109,-109 109,-123 109,-123 109,-129 103,-135 97,-135"/>
<text text-anchor="start" x="76" y="-111.33" font-family="Helvetica,sans-Serif" font-size="14.00">+</text>
</g>
</g>
</svg>
