<?xml version="1.0" encoding="UTF-8" standalone="no"?>
<!DOCTYPE svg PUBLIC "-//W3C//DTD SVG 1.1//EN"
 "http://www.w3.org/Graphics/SVG/1.1/DTD/svg11.dtd">
<!-- Generated by graphviz version 12.2.1 (0)
 -->
<!-- Title: egraph Pages: 1 -->
<svg width="289pt" height="240pt"
 viewBox="0.00 0.00 289.00 240.00" xmlns="http://www.w3.org/2000/svg" xmlns:xlink="http://www.w3.org/1999/xlink">
<g id="graph0" class="graph" transform="scale(1 1) rotate(0) translate(4 236)">
<title>egraph</title>
<polygon fill="white" stroke="none" points="-4,4 -4,-236 285,-236 285,4 -4,4"/>
<g id="clust2" class="cluster">
<title>cluster_0</title>
<path fill="lightgrey" stroke="black" stroke-dasharray="5,2" d="M55,-8C55,-8 101,-8 101,-8 107,-8 113,-14 113,-20 113,-20 113,-50 113,-50 113,-56 107,-62 101,-62 101,-62 55,-62 55,-62 49,-62 43,-56 43,-50 43,-50 43,-20 43,-20 43,-14 49,-8 55,-8"/>
</g>
<g id="clust4" class="cluster">
<title>cluster_1</title>
<path fill="lightgrey" stroke="black" stroke-dasharray="5,2" d="M20,-89C20,-89 66,-89 66,-89 72,-89 78,-95 78,-101 78,-101 78,-131 78,-131 78,-137 72,-143 66,-143 66,-143 20,-143 20,-143 14,-143 8,-137 8,-131 8,-131 8,-101 8,-101 8,-95 14,-89 20,-89"/>
</g>
<g id="clust6" class="cluster">
<title>cluster_2</title>
<path fill="lightgrey" stroke="black" stroke-dasharray="5,2" d="M133,-8C133,-8 179,-8 179,-8 185,-8 191,-14 191,-20 191,-20 191,-50 191,-50 191,-56 185,-62 179,-62 179,-62 133,-62 133,-62 127,-62 121,-56 121,-50 121,-50 121,-20 121,-20 121,-14 127,-8 133,-8"/>
</g>
<g id="clust8" class="cluster">
<title>cluster_3</title>
<path fill="lightgrey" stroke="black" stroke-dasharray="5,2" d="M21,-170C21,-170 125,-170 125,-170 131,-170 137,-176 137,-182 137,-182 137,-212 137,-212 137,-218 131,-224 125,-224 125,-224 21,-224 21,-224 15,-224 9,-218 9,-212 9,-212 9,-182 9,-182 9,-176 15,-170 21,-170"/>
</g>
<g id="clust10" class="cluster">
<title>cluster_4</title>
<path fill="lightgrey" stroke="black" stroke-dasharray="5,2" d="M214,-8C214,-8 260,-8 260,-8 266,-8 272,-14 272,-20 272,-20 272,-50 272,-50 272,-56 266,-62 260,-62 260,-62 214,-62 214,-62 208,-62 202,-56 202,-50 202,-50 202,-20 202,-20 202,-14 208,-8 214,-8"/>
</g>
<g id="clust12" class="cluster">
<title>cluster_7</title>
<path fill="lightgrey" stroke="black" stroke-dasharray="5,2" d="M133,-89C133,-89 237,-89 237,-89 243,-89 249,-95 249,-101 249,-101 249,-131 249,-131 249,-137 243,-143 237,-143 237,-143 133,-143 133,-143 127,-143 121,-137 121,-131 121,-131 121,-101 121,-101 121,-95 127,-89 133,-89"/>
</g>
<g id="clust14" class="cluster">
<title>cluster_8</title>
<path fill="lightgrey" stroke="black" stroke-dasharray="5,2" d="M157,-170C157,-170 261,-170 261,-170 267,-170 273,-176 273,-182 273,-182 273,-212 273,-212 273,-218 267,-224 261,-224 261,-224 157,-224 157,-224 151,-224 145,-218 145,-212 145,-212 145,-182 145,-182 145,-176 151,-170 157,-170"/>
</g>
<!-- 1.1&#45;&gt;0.1 -->
<g id="edge1" class="edge">
<title>1.1:s&#45;&gt;0.1</title>
<path fill="none" stroke="black" d="M43,-100C43,-88.55 47.36,-77.21 53.01,-67.33"/>
<polygon fill="black" stroke="black" points="54.36,-68.47 55.47,-63.29 51.37,-66.65 54.36,-68.47"/>
</g>
<!-- 3.1&#45;&gt;1.1 -->
<g id="edge2" class="edge">
<title>3.1:s&#45;&gt;1.1</title>
<path fill="none" stroke="black" d="M36.5,-181C36.5,-170.71 37.34,-159.54 38.42,-149.45"/>
<polygon fill="black" stroke="black" points="40.16,-149.67 38.98,-144.5 36.68,-149.27 40.16,-149.67"/>
</g>
<!-- 3.1&#45;&gt;2.1 -->
<g id="edge3" class="edge">
<title>3.1:s&#45;&gt;2.1</title>
<path fill="none" stroke="black" d="M51.5,-181C51.5,-160.15 66.8,-159.91 79,-143 97.39,-117.52 118.19,-88.6 133.54,-67.26"/>
<polygon fill="black" stroke="black" points="134.94,-68.31 136.44,-63.23 132.1,-66.27 134.94,-68.31"/>
</g>
<!-- 3.2&#45;&gt;0.1 -->
<g id="edge4" class="edge">
<title>3.2:s&#45;&gt;0.1</title>
<path fill="none" stroke="black" d="M94.5,-181C94.5,-142.09 88.56,-97.69 83.81,-68.38"/>
<polygon fill="black" stroke="black" points="85.55,-68.14 83,-63.49 82.09,-68.71 85.55,-68.14"/>
</g>
<!-- 3.2&#45;&gt;7.1 -->
<g id="edge5" class="edge">
<title>3.2:s&#45;&gt;7.1</title>
<path fill="none" stroke="black" d="M109.5,-181C109.5,-168.92 114.99,-157.58 122.2,-147.9"/>
<polygon fill="black" stroke="black" points="123.42,-149.18 125.17,-144.18 120.68,-147 123.42,-149.18"/>
</g>
<!-- 7.1&#45;&gt;2.1 -->
<g id="edge6" class="edge">
<title>7.1:s&#45;&gt;2.1</title>
<path fill="none" stroke="black" d="M156,-100C156,-89.74 156,-78.57 156,-68.46"/>
<polygon fill="black" stroke="black" points="157.75,-68.51 156,-63.51 154.25,-68.51 157.75,-68.51"/>
</g>
<!-- 7.2&#45;&gt;4.1 -->
<g id="edge7" class="edge">
<title>7.2:s&#45;&gt;4.1</title>
<path fill="none" stroke="black" d="M214,-100C214,-89.23 216.92,-78.02 220.68,-68.04"/>
<polygon fill="black" stroke="black" points="222.3,-68.69 222.54,-63.4 219.05,-67.39 222.3,-68.69"/>
</g>
<!-- 8.1&#45;&gt;0.1 -->
<g id="edge8" class="edge">
<title>8.1:s&#45;&gt;0.1</title>
<path fill="none" stroke="black" d="M172.5,-181C172.5,-152.2 137.64,-165.77 120,-143 110.62,-130.9 97.4,-94.87 88.31,-67.94"/>
<polygon fill="black" stroke="black" points="90.05,-67.62 86.8,-63.43 86.73,-68.73 90.05,-67.62"/>
</g>
<!-- 8.1&#45;&gt;7.1 -->
<g id="edge9" class="edge">
<title>8.1:s&#45;&gt;7.1</title>
<path fill="none" stroke="black" d="M187.5,-181C187.5,-169.81 183.58,-158.54 178.5,-148.65"/>
<polygon fill="black" stroke="black" points="180.06,-147.87 176.12,-144.32 176.99,-149.55 180.06,-147.87"/>
</g>
<!-- 8.2&#45;&gt;7.1 -->
<g id="edge10" class="edge">
<title>8.2:s&#45;&gt;7.1</title>
<path fill="none" stroke="black" d="M230.5,-181C230.5,-180.3 210.78,-163.37 191.63,-147.11"/>
<polygon fill="black" stroke="black" points="192.88,-145.88 187.94,-143.98 190.62,-148.55 192.88,-145.88"/>
</g>
<!-- 8.2&#45;&gt;4.1 -->
<g id="edge11" class="edge">
<title>8.2:s&#45;&gt;4.1</title>
<path fill="none" stroke="black" d="M245.5,-181C245.5,-163.99 249,-159.98 250,-143 251.41,-119.04 252.88,-112.83 250,-89 249.18,-82.18 247.78,-74.97 246.19,-68.14"/>
<polygon fill="black" stroke="black" points="247.94,-67.91 245.05,-63.47 244.54,-68.74 247.94,-67.91"/>
</g>
<!-- 0.1 -->
<g id="node1" class="node">
<title>0.1</title>
<path fill="white" stroke="black" d="M93,-54C93,-54 63,-54 63,-54 57,-54 51,-48 51,-42 51,-42 51,-28 51,-28 51,-22 57,-16 63,-16 63,-16 93,-16 93,-16 99,-16 105,-22 105,-28 105,-28 105,-42 105,-42 105,-48 99,-54 93,-54"/>
<text text-anchor="start" x="73.88" y="-30.32" font-family="Helvetica,sans-Serif" font-size="14.00">a</text>
</g>
<!-- 1.1 -->
<g id="node2" class="node">
<title>1.1</title>
<path fill="white" stroke="black" d="M58,-135C58,-135 28,-135 28,-135 22,-135 16,-129 16,-123 16,-123 16,-109 16,-109 16,-103 22,-97 28,-97 28,-97 58,-97 58,-97 64,-97 70,-103 70,-109 70,-109 70,-123 70,-123 70,-129 64,-135 58,-135"/>
<text text-anchor="start" x="38.5" y="-111.33" font-family="Helvetica,sans-Serif" font-size="14.00">g</text>
</g>
<!-- 2.1 -->
<g id="node3" class="node">
<title>2.1</title>
<path fill="white" stroke="black" d="M171,-54C171,-54 141,-54 141,-54 135,-54 129,-48 129,-42 129,-42 129,-28 129,-28 129,-22 135,-16 141,-16 141,-16 171,-16 171,-16 177,-16 183,-22 183,-28 183,-28 183,-42 183,-42 183,-48 177,-54 171,-54"/>
<text text-anchor="start" x="152.25" y="-30.32" font-family="Helvetica,sans-Serif" font-size="14.00">c</text>
</g>
<!-- 3.1 -->
<g id="node4" class="node">
<title>3.1</title>
<path fill="white" stroke="black" d="M59,-216C59,-216 29,-216 29,-216 23,-216 17,-210 17,-204 17,-204 17,-190 17,-190 17,-184 23,-178 29,-178 29,-178 59,-178 59,-178 65,-178 71,-184 71,-190 71,-190 71,-204 71,-204 71,-210 65,-216 59,-216"/>
<text text-anchor="start" x="41.38" y="-192.32" font-family="Helvetica,sans-Serif" font-size="14.00">f</text>
</g>
<!-- 3.2 -->
<g id="node5" class="node">
<title>3.2</title>
<path fill="white" stroke="black" d="M117,-216C117,-216 87,-216 87,-216 81,-216 75,-210 75,-204 75,-204 75,-190 75,-190 75,-184 81,-178 87,-178 87,-178 117,-178 117,-178 123,-178 129,-184 129,-190 129,-190 129,-204 129,-204 129,-210 123,-216 117,-216"/>
<text text-anchor="start" x="97.5" y="-192.32" font-family="Helvetica,sans-Serif" font-size="14.00">h</text>
</g>
<!-- 7.1 -->
<g id="node6" class="node">
<title>7.1</title>
<path fill="white" stroke="black" d="M171,-135C171,-135 141,-135 141,-135 135,-135 129,-129 129,-123 129,-123 129,-109 129,-109 129,-103 135,-97 141,-97 141,-97 171,-97 171,-97 177,-97 183,-103 183,-109 183,-109 183,-123 183,-123 183,-129 177,-135 171,-135"/>
<text text-anchor="start" x="151.5" y="-111.33" font-family="Helvetica,sans-Serif" font-size="14.00">g</text>
</g>
<!-- 4.1 -->
<g id="node7" class="node">
<title>4.1</title>
<path fill="white" stroke="black" d="M252,-54C252,-54 222,-54 222,-54 216,-54 210,-48 210,-42 210,-42 210,-28 210,-28 210,-22 216,-16 222,-16 222,-16 252,-16 252,-16 258,-16 264,-22 264,-28 264,-28 264,-42 264,-42 264,-48 258,-54 252,-54"/>
<text text-anchor="start" x="232.5" y="-30.32" font-family="Helvetica,sans-Serif" font-size="14.00">b</text>
</g>
<!-- 7.2 -->
<g id="node8" class="node">
<title>7.2</title>
<path fill="white" stroke="black" d="M229,-135C229,-135 199,-135 199,-135 193,-135 187,-129 187,-123 187,-123 187,-109 187,-109 187,-103 193,-97 199,-97 199,-97 229,-97 229,-97 235,-97 241,-103 241,-109 241,-109 241,-123 241,-123 241,-129 235,-135 229,-135"/>
<text text-anchor="start" x="209.5" y="-111.33" font-family="Helvetica,sans-Serif" font-size="14.00">g</text>
</g>
<!-- 8.1 -->
<g id="node9" class="node">
<title>8.1</title>
<path fill="white" stroke="black" d="M195,-216C195,-216 165,-216 165,-216 159,-216 153,-210 153,-204 153,-204 153,-190 153,-190 153,-184 159,-178 165,-178 165,-178 195,-178 195,-178 201,-178 207,-184 207,-190 207,-190 207,-204 207,-204 207,-210 201,-216 195,-216"/>
<text text-anchor="start" x="175.5" y="-192.32" font-family="Helvetica,sans-Serif" font-size="14.00">h</text>
</g>
<!-- 8.2 -->
<g id="node10" class="node">
<title>8.2</title>
<path fill="white" stroke="black" d="M253,-216C253,-216 223,-216 223,-216 217,-216 211,-210 211,-204 211,-204 211,-190 211,-190 211,-184 217,-178 223,-178 223,-178 253,-178 253,-178 259,-178 265,-184 265,-190 265,-190 265,-204 265,-204 265,-210 259,-216 253,-216"/>
<text text-anchor="start" x="233.5" y="-192.32" font-family="Helvetica,sans-Serif" font-size="14.00">h</text>
</g>
</g>
</svg>
